{"accessors":[{"bufferView":0,"byteOffset":0,"componentType":5126,"count":46,"max":[-0.07400653568511216,0.023481937052623644,-0.007],"min":[-0.08666989564669385,0.010416101976007453,-0.013495752553328885],"type":"VEC3"},{"bufferView":0,"byteOffset":552,"componentType":5126,"count":28,"max":[-0.064006001835817,0.034240762414853267,0.0],"min":[-0.10139516654327248,-0.005889018796506083,-0.014811817340611522],"type":"VEC3"},{"bufferView":0,"byteOffset":888,"componentType":5126,"count":14,"max":[-0.07019597990163165,0.034240762414853267,0.0],"min":[-0.09788979800415297,0.0035830574251021708,-0.014287071897366022],"type":"VEC3"},{"bufferView":0,"byteOffset":1056,"componentType":5126,"count":15,"max":[-0.0642501562749181,0.028378926551459798,-0.00034589124127081835],"min":[-0.09169981993833786,-0.0020084937582156147,-0.014287071897365932],"type":"VEC3"},{"bufferView":0,"byteOffset":1236,"componentType":5126,"count":6,"max":[-0.06487076443343973,0.034240762414853267,0.0],"min":[-0.07019597990163165,0.02943037140280129,0.0],"type":"VEC3"},{"bufferView":0,"byteOffset":1308,"componentType":5126,"count":77,"max":[-0.06546933081676483,0.03215767303865017,-0.00308445925835897],"min":[-0.13122961015454216,-0.03813551786417866,-0.015163653793946235],"type":"VEC3"},{"bufferView":0,"byteOffset":2232,"componentType":5126,"count":36,"max":[-0.11871743589357958,-0.03740091700964781,0.0005256874055305889],"min":[-0.13068652869554923,-0.043570995451235969,-0.009073410215817268],"type":"VEC3"},{"bufferView":0,"byteOffset":2664,"componentType":5126,"count":171,"max":[-0.05774037306136403,0.03218222242764143,0.0009274430322600498],"min":[-0.12095980681987169,-0.043790235478691198,-0.015154146635380207],"type":"VEC3"},{"bufferView":0,"byteOffset":4716,"componentType":5126,"count":10,"max":[-0.06693883067143469,0.03246197629175038,0.0009274441937018053],"min":[-0.0674993510728702,0.031901551671982799,0.0],"type":"VEC3"},{"bufferView":0,"byteOffset":4836,"componentType":5126,"count":8,"max":[-0.13007651470520138,-0.03740091700964781,0.0005256874055305889],"min":[-0.13106921820936746,-0.03846081979804233,-0.00308445925835897],"type":"VEC3"},{"bufferView":0,"byteOffset":4932,"componentType":5126,"count":32,"max":[-0.13007651470520138,-0.026725692738007277,0.0005256743524707196],"min":[-0.13736558036876296,-0.038115121926452878,-0.009073410215816279],"type":"VEC3"},{"bufferView":0,"byteOffset":5316,"componentType":5126,"count":174,"max":[-0.06724852144646425,0.03952580413080036,0.0009274441937018053],"min":[-0.1381419972113781,-0.02840377841157558,-0.015155216267017434],"type":"VEC3"},{"bufferView":0,"byteOffset":7404,"componentType":5126,"count":43,"max":[-0.06959373680507108,0.02761406934450612,0.015000000000000026],"min":[-0.1236867019460156,-0.028030216997754585,0.01499999999999988],"type":"VEC3"},{"bufferView":0,"byteOffset":7920,"componentType":5126,"count":92,"max":[-0.05774037306136403,0.03952580413080036,0.01276522694869303],"min":[-0.13809252158537867,-0.04381744106082655,0.0],"type":"VEC3"},{"bufferView":0,"byteOffset":9024,"componentType":5126,"count":28,"max":[-0.11784830116568866,-0.02573453986180227,0.004279845609202423],"min":[-0.13736558036876296,-0.04357099545123598,0.0],"type":"VEC3"},{"bufferView":0,"byteOffset":9360,"componentType":5126,"count":142,"max":[-0.09829907347619844,-0.004808504465465138,0.015000000000000026],"min":[-0.1362117096204455,-0.04232263390398059,0.0022755768247871308],"type":"VEC3"},{"bufferView":0,"byteOffset":11064,"componentType":5126,"count":4,"max":[-0.13620992021517956,-0.02572188611573103,0.004286583390665877],"min":[-0.13622057787480344,-0.025735445457293814,0.004249926242827895],"type":"VEC3"},{"bufferView":0,"byteOffset":11112,"componentType":5126,"count":31,"max":[-0.09584140923590488,-0.027741739850586906,0.015000000000000015],"min":[-0.11754421357962015,-0.04227839280897343,0.004457837361361763],"type":"VEC3"},{"bufferView":0,"byteOffset":11484,"componentType":5126,"count":204,"max":[-0.06535175344526409,0.03180588094591023,0.015000000000000015],"min":[-0.12772784983943356,-0.03155348067895703,0.012104879649604347],"type":"VEC3"},{"bufferView":0,"byteOffset":13932,"componentType":5126,"count":36,"max":[-0.1236867019460156,-0.002749717112627301,0.01499999999999988],"min":[-0.13620301610473865,-0.02542569251137654,0.004457888816035068],"type":"VEC3"},{"bufferView":0,"byteOffset":14364,"componentType":5126,"count":4,"max":[-0.11783571993295963,-0.04232067366614043,0.004286585469776912],"min":[-0.11784830351695282,-0.042331548276629649,0.004249926241541617],"type":"VEC3"},{"bufferView":0,"byteOffset":14412,"componentType":5126,"count":3,"max":[-0.11871743589357958,-0.04314120176961917,0.0],"min":[-0.12116423347396706,-0.04357099545123598,-0.0005819455853182422],"type":"VEC3"},{"bufferView":0,"byteOffset":14448,"componentType":5126,"count":24,"max":[-0.05867478334100855,0.001028867817739508,0.0],"min":[-0.11871743589357964,-0.04381744106082655,-0.005079698225957057],"type":"VEC3"},{"bufferView":0,"byteOffset":14736,"componentType":5126,"count":3,"max":[-0.13669007944301585,-0.026725692738007277,0.0],"min":[-0.13736558036876296,-0.029116336281435216,-0.0005819455853177113],"type":"VEC3"},{"bufferView":0,"byteOffset":14772,"componentType":5126,"count":25,"max":[-0.09907913215993183,0.03752705800404353,0.0],"min":[-0.1381419972113781,-0.026725692738007277,-0.0050831904399271789],"type":"VEC3"},{"bufferView":0,"byteOffset":15072,"componentType":5126,"count":4,"max":[-0.09788979800415297,0.0035830574251021708,-0.014287071897366022],"min":[-0.10139516654327248,-0.00029746761318775756,-0.014811817340611522],"type":"VEC3"},{"bufferView":0,"byteOffset":15120,"componentType":5126,"count":4,"max":[-0.09169981993833786,-0.0020084937582156147,-0.014287071897365932],"min":[-0.09520518847745788,-0.005889018796506083,-0.014811817340611522],"type":"VEC3"},{"bufferView":0,"byteOffset":15168,"componentType":5126,"count":3,"max":[-0.064006001835817,0.02943037140280129,0.0],"min":[-0.06487076443343973,0.02850740482258951,0.0],"type":"VEC3"},{"bufferView":0,"byteOffset":15204,"componentType":5126,"count":3,"max":[-0.064006001835817,0.02864921123153492,0.0],"min":[-0.0642501562749181,0.028378926551459798,-0.00034589124127081835],"type":"VEC3"},{"bufferView":0,"byteOffset":15240,"componentType":5126,"count":30,"max":[-0.07717887478769427,0.024170897703718647,0.0],"min":[-0.08752175015157449,0.01304358691301092,-0.011386602086476414],"type":"VEC3"},{"bufferView":0,"byteOffset":15600,"componentType":5126,"count":4,"max":[-0.07336614428426766,0.024170897703718647,0.0],"min":[-0.07717887478769427,0.020626951000447176,-0.007006482657850301],"type":"VEC3"},{"bufferView":0,"byteOffset":15648,"componentType":5126,"count":30,"max":[-0.07336614428426766,0.020626951000447179,0.0],"min":[-0.08370901964814789,0.009499640209739459,-0.01140538922960573],"type":"VEC3"},{"bufferView":0,"byteOffset":16008,"componentType":5126,"count":4,"max":[-0.08370901964814789,0.01304358691301092,0.0],"min":[-0.08752175015157449,0.009499640209739459,-0.01140538922960573],"type":"VEC3"},{"bufferView":0,"byteOffset":16056,"componentType":5126,"count":4,"max":[-0.07336614428426766,0.024170897703718647,0.0],"min":[-0.08752175015157449,0.00949964020973946,0.0],"type":"VEC3"},{"bufferView":0,"byteOffset":16104,"componentType":5126,"count":16,"max":[-0.07782426098839907,0.02347656343180469,-0.0073087398849403209],"min":[-0.08585770281790821,0.014833840706150195,-0.013495752553328885],"type":"VEC3"},{"bufferView":0,"byteOffset":16296,"componentType":5126,"count":16,"max":[-0.0740123891972495,0.019931692888880305,-0.007334211102437403],"min":[-0.08203700485264802,0.011298465741483003,-0.01349568238466242],"type":"VEC3"},{"bufferView":0,"byteOffset":16488,"componentType":5126,"count":38,"max":[-0.07400653568511216,0.023481937052623644,-0.0004999999999999938],"min":[-0.08666989564669385,0.010416101976007453,-0.007000000000000001],"type":"VEC3"},{"bufferView":1,"byteOffset":0,"componentType":5126,"count":46,"type":"VEC3"},{"bufferView":1,"byteOffset":552,"componentType":5126,"count":28,"type":"VEC3"},{"bufferView":1,"byteOffset":888,"componentType":5126,"count":14,"type":"VEC3"},{"bufferView":1,"byteOffset":1056,"componentType":5126,"count":15,"type":"VEC3"},{"bufferView":1,"byteOffset":1236,"componentType":5126,"count":6,"type":"VEC3"},{"bufferView":1,"byteOffset":1308,"componentType":5126,"count":77,"type":"VEC3"},{"bufferView":1,"byteOffset":2232,"componentType":5126,"count":36,"type":"VEC3"},{"bufferView":1,"byteOffset":2664,"componentType":5126,"count":171,"type":"VEC3"},{"bufferView":1,"byteOffset":4716,"componentType":5126,"count":10,"type":"VEC3"},{"bufferView":1,"byteOffset":4836,"componentType":5126,"count":8,"type":"VEC3"},{"bufferView":1,"byteOffset":4932,"componentType":5126,"count":32,"type":"VEC3"},{"bufferView":1,"byteOffset":5316,"componentType":5126,"count":174,"type":"VEC3"},{"bufferView":1,"byteOffset":7404,"componentType":5126,"count":43,"type":"VEC3"},{"bufferView":1,"byteOffset":7920,"componentType":5126,"count":92,"type":"VEC3"},{"bufferView":1,"byteOffset":9024,"componentType":5126,"count":28,"type":"VEC3"},{"bufferView":1,"byteOffset":9360,"componentType":5126,"count":142,"type":"VEC3"},{"bufferView":1,"byteOffset":11064,"componentType":5126,"count":4,"type":"VEC3"},{"bufferView":1,"byteOffset":11112,"componentType":5126,"count":31,"type":"VEC3"},{"bufferView":1,"byteOffset":11484,"componentType":5126,"count":204,"type":"VEC3"},{"bufferView":1,"byteOffset":13932,"componentType":5126,"count":36,"type":"VEC3"},{"bufferView":1,"byteOffset":14364,"componentType":5126,"count":4,"type":"VEC3"},{"bufferView":1,"byteOffset":14412,"componentType":5126,"count":3,"type":"VEC3"},{"bufferView":1,"byteOffset":14448,"componentType":5126,"count":24,"type":"VEC3"},{"bufferView":1,"byteOffset":14736,"componentType":5126,"count":3,"type":"VEC3"},{"bufferView":1,"byteOffset":14772,"componentType":5126,"count":25,"type":"VEC3"},{"bufferView":1,"byteOffset":15072,"componentType":5126,"count":4,"type":"VEC3"},{"bufferView":1,"byteOffset":15120,"componentType":5126,"count":4,"type":"VEC3"},{"bufferView":1,"byteOffset":15168,"componentType":5126,"count":3,"type":"VEC3"},{"bufferView":1,"byteOffset":15204,"componentType":5126,"count":3,"type":"VEC3"},{"bufferView":1,"byteOffset":15240,"componentType":5126,"count":30,"type":"VEC3"},{"bufferView":1,"byteOffset":15600,"componentType":5126,"count":4,"type":"VEC3"},{"bufferView":1,"byteOffset":15648,"componentType":5126,"count":30,"type":"VEC3"},{"bufferView":1,"byteOffset":16008,"componentType":5126,"count":4,"type":"VEC3"},{"bufferView":1,"byteOffset":16056,"componentType":5126,"count":4,"type":"VEC3"},{"bufferView":1,"byteOffset":16104,"componentType":5126,"count":16,"type":"VEC3"},{"bufferView":1,"byteOffset":16296,"componentType":5126,"count":16,"type":"VEC3"},{"bufferView":1,"byteOffset":16488,"componentType":5126,"count":38,"type":"VEC3"},{"bufferView":2,"byteOffset":0,"componentType":5123,"count":132,"type":"SCALAR"},{"bufferView":2,"byteOffset":264,"componentType":5123,"count":84,"type":"SCALAR"},{"bufferView":2,"byteOffset":432,"componentType":5123,"count":36,"type":"SCALAR"},{"bufferView":2,"byteOffset":504,"componentType":5123,"count":39,"type":"SCALAR"},{"bufferView":2,"byteOffset":584,"componentType":5123,"count":12,"type":"SCALAR"},{"bufferView":2,"byteOffset":608,"componentType":5123,"count":273,"type":"SCALAR"},{"bufferView":2,"byteOffset":1156,"componentType":5123,"count":138,"type":"SCALAR"},{"bufferView":2,"byteOffset":1432,"componentType":5123,"count":858,"type":"SCALAR"},{"bufferView":2,"byteOffset":3148,"componentType":5123,"count":24,"type":"SCALAR"},{"bufferView":2,"byteOffset":3196,"componentType":5123,"count":21,"type":"SCALAR"},{"bufferView":2,"byteOffset":3240,"componentType":5123,"count":117,"type":"SCALAR"},{"bufferView":2,"byteOffset":3476,"componentType":5123,"count":882,"type":"SCALAR"},{"bufferView":2,"byteOffset":5240,"componentType":5123,"count":123,"type":"SCALAR"},{"bufferView":2,"byteOffset":5488,"componentType":5123,"count":270,"type":"SCALAR"},{"bufferView":2,"byteOffset":6028,"componentType":5123,"count":78,"type":"SCALAR"},{"bufferView":2,"byteOffset":6184,"componentType":5123,"count":708,"type":"SCALAR"},{"bufferView":2,"byteOffset":7600,"componentType":5123,"count":6,"type":"SCALAR"},{"bufferView":2,"byteOffset":7612,"componentType":5123,"count":111,"type":"SCALAR"},{"bufferView":2,"byteOffset":7836,"componentType":5123,"count":1002,"type":"SCALAR"},{"bufferView":2,"byteOffset":9840,"componentType":5123,"count":141,"type":"SCALAR"},{"bufferView":2,"byteOffset":10124,"componentType":5123,"count":6,"type":"SCALAR"},{"bufferView":2,"byteOffset":10136,"componentType":5123,"count":3,"type":"SCALAR"},{"bufferView":2,"byteOffset":10144,"componentType":5123,"count":66,"type":"SCALAR"},{"bufferView":2,"byteOffset":10276,"componentType":5123,"count":3,"type":"SCALAR"},{"bufferView":2,"byteOffset":10284,"componentType":5123,"count":69,"type":"SCALAR"},{"bufferView":2,"byteOffset":10424,"componentType":5123,"count":6,"type":"SCALAR"},{"bufferView":2,"byteOffset":10436,"componentType":5123,"count":6,"type":"SCALAR"},{"bufferView":2,"byteOffset":10448,"componentType":5123,"count":3,"type":"SCALAR"},{"bufferView":2,"byteOffset":10456,"componentType":5123,"count":3,"type":"SCALAR"},{"bufferView":2,"byteOffset":10464,"componentType":5123,"count":84,"type":"SCALAR"},{"bufferView":2,"byteOffset":10632,"componentType":5123,"count":6,"type":"SCALAR"},{"bufferView":2,"byteOffset":10644,"componentType":5123,"count":84,"type":"SCALAR"},{"bufferView":2,"byteOffset":10812,"componentType":5123,"count":6,"type":"SCALAR"},{"bufferView":2,"byteOffset":10824,"componentType":5123,"count":6,"type":"SCALAR"},{"bufferView":2,"byteOffset":10836,"componentType":5123,"count":42,"type":"SCALAR"},{"bufferView":2,"byteOffset":10920,"componentType":5123,"count":42,"type":"SCALAR"},{"bufferView":2,"byteOffset":11004,"componentType":5123,"count":108,"type":"SCALAR"}],"asset":{"generator":"Open CASCADE Technology 7.6 [dev.opencascade.org]","version":"2.0","extras":{"Author":"","Originating system":"SolidWorks 2019","Organization":"","Comments":"STEP AP214"}},"bufferViews":[{"buffer":0,"byteLength":16944,"byteOffset":0,"byteStride":12,"target":34962},{"buffer":0,"byteLength":16944,"byteOffset":16944,"byteStride":12,"target":34962},{"buffer":0,"byteLength":11220,"byteOffset":33888,"target":34963}],"buffers":[{"byteLength":45108,"uri":"mouse.bin"}],"materials":[{"name":"mat_0","pbrMetallicRoughness":{"baseColorFactor":[0.37123769521713259,0.33716362714767458,0.31854677200317385,1.0],"roughnessFactor":0.2121320366859436},"doubleSided":true},{"name":"mat_1","pbrMetallicRoughness":{"baseColorFactor":[0.07227185368537903,0.07227185368537903,0.07227185368537903,1.0],"roughnessFactor":0.2121320366859436},"doubleSided":true},{"name":"mat_2","pbrMetallicRoughness":{"baseColorFactor":[0.34670406579971316,0.366252601146698,1.0,1.0],"roughnessFactor":0.2121320366859436},"doubleSided":true}],"meshes":[{"name":"mouse","primitives":[{"attributes":{"NORMAL":37,"POSITION":0},"indices":74,"material":0,"mode":4},{"attributes":{"NORMAL":38,"POSITION":1},"indices":75,"material":1,"mode":4},{"attributes":{"NORMAL":39,"POSITION":2},"indices":76,"material":2,"mode":4},{"attributes":{"NORMAL":40,"POSITION":3},"indices":77,"material":2,"mode":4},{"attributes":{"NORMAL":41,"POSITION":4},"indices":78,"material":2,"mode":4},{"attributes":{"NORMAL":42,"POSITION":5},"indices":79,"material":2,"mode":4},{"attributes":{"NORMAL":43,"POSITION":6},"indices":80,"material":2,"mode":4},{"attributes":{"NORMAL":44,"POSITION":7},"indices":81,"material":2,"mode":4},{"attributes":{"NORMAL":45,"POSITION":8},"indices":82,"material":2,"mode":4},{"attributes":{"NORMAL":46,"POSITION":9},"indices":83,"material":2,"mode":4},{"attributes":{"NORMAL":47,"POSITION":10},"indices":84,"material":2,"mode":4},{"attributes":{"NORMAL":48,"POSITION":11},"indices":85,"material":2,"mode":4},{"attributes":{"NORMAL":49,"POSITION":12},"indices":86,"material":2,"mode":4},{"attributes":{"NORMAL":50,"POSITION":13},"indices":87,"material":2,"mode":4},{"attributes":{"NORMAL":51,"POSITION":14},"indices":88,"material":2,"mode":4},{"attributes":{"NORMAL":52,"POSITION":15},"indices":89,"material":2,"mode":4},{"attributes":{"NORMAL":53,"POSITION":16},"indices":90,"material":2,"mode":4},{"attributes":{"NORMAL":54,"POSITION":17},"indices":91,"material":2,"mode":4},{"attributes":{"NORMAL":55,"POSITION":18},"indices":92,"material":2,"mode":4},{"attributes":{"NORMAL":56,"POSITION":19},"indices":93,"material":2,"mode":4},{"attributes":{"NORMAL":57,"POSITION":20},"indices":94,"material":2,"mode":4},{"attributes":{"NORMAL":58,"POSITION":21},"indices":95,"material":2,"mode":4},{"attributes":{"NORMAL":59,"POSITION":22},"indices":96,"material":2,"mode":4},{"attributes":{"NORMAL":60,"POSITION":23},"indices":97,"material":2,"mode":4},{"attributes":{"NORMAL":61,"POSITION":24},"indices":98,"material":2,"mode":4},{"attributes":{"NORMAL":62,"POSITION":25},"indices":99,"material":1,"mode":4},{"attributes":{"NORMAL":63,"POSITION":26},"indices":100,"material":1,"mode":4},{"attributes":{"NORMAL":64,"POSITION":27},"indices":101,"material":1,"mode":4},{"attributes":{"NORMAL":65,"POSITION":28},"indices":102,"material":1,"mode":4},{"attributes":{"NORMAL":66,"POSITION":29},"indices":103,"material":1,"mode":4},{"attributes":{"NORMAL":67,"POSITION":30},"indices":104,"material":1,"mode":4},{"attributes":{"NORMAL":68,"POSITION":31},"indices":105,"material":1,"mode":4},{"attributes":{"NORMAL":69,"POSITION":32},"indices":106,"material":1,"mode":4},{"attributes":{"NORMAL":70,"POSITION":33},"indices":107,"material":1,"mode":4},{"attributes":{"NORMAL":71,"POSITION":34},"indices":108,"material":0,"mode":4},{"attributes":{"NORMAL":72,"POSITION":35},"indices":109,"material":0,"mode":4},{"attributes":{"NORMAL":73,"POSITION":36},"indices":110,"material":0,"mode":4}]}],"nodes":[{"mesh":0,"name":"mouse"}],"scene":0,"scenes":[{"nodes":[0]}]}